<?xml version="1.0" encoding="utf-8"?>
<!DOCTYPE svg PUBLIC "-//W3C//DTD SVG 1.1//EN" "http://www.w3.org/Graphics/SVG/1.1/DTD/svg11.dtd">
<svg height="20" width="20" version="1.1" xmlns="http://www.w3.org/2000/svg" xmlns:xlink="http://www.w3.org/1999/xlink" x="0px" y="0px">
	<path fill="#777" transform="scale(0.01,-0.01) translate(0,-1536)" d="M512 512v-384h-256v384h256zM896 1024v-896h-256v896h256zM1280 768v-640h-256v640h256zM1664 1152v-1024h-256v1024h256zM1792 32v1216q0 13 -9.5 22.5t-22.5 9.5h-1600q-13 0 -22.5 -9.5t-9.5 -22.5v-1216q0 -13 9.5 -22.5t22.5 -9.5h1600q13 0 22.5 9.5t9.5 22.5z M1920 1248v-1216q0 -66 -47 -113t-113 -47h-1600q-66 0 -113 47t-47 113v1216q0 66 47 113t113 47h1600q66 0 113 -47t47 -113z"/>
</svg>